<?xml version="1.0" encoding="utf-8"?>
<!-- Generator: Adobe Illustrator 19.2.1, SVG Export Plug-In . SVG Version: 6.00 Build 0)  -->
<svg version="1.1" id="Capa_1" xmlns="http://www.w3.org/2000/svg" xmlns:xlink="http://www.w3.org/1999/xlink" x="0px" y="0px"
	 viewBox="0 0 484.1 476.7" style="enable-background:new 0 0 484.1 476.7;" xml:space="preserve">
<style type="text/css">
	.st0{fill:#223D57;}
	.st1{fill:#14A0A8;}
	.st2{fill:#FCFCFC;}
</style>
<g>
	<path class="st0" d="M241.7,476.7c-49.9,0-95.6-14.2-136.8-42c-31.5-21.2-56.8-48.6-75.1-82.1C4.8,307-5,258.1,2.4,206.7
		c9.9-69,44.5-123.5,101.5-163.6c23.1-16.2,48.5-27.9,75.8-34.8c64.9-16.4,126.8-8.5,185,24.9c16.1,9.2,31.1,20.1,44.5,33
		c51.7,49.6,76.9,110.2,74.8,181.8c-1.2,38.5-12,74.5-31.2,107.9c-14.2,24.7-32.1,46.4-54.2,64.5C353,457.6,300.7,476.4,241.7,476.7
		z M7.2,231.9c0.1,35.5,6.1,67.7,18.6,96.3c19,43.6,48.4,78.3,88.2,104.1c17.2,11.1,35.6,19.7,55.1,25.9
		c30.1,9.6,60.7,13.1,92.2,10.6c42.3-3.3,81.5-16.2,115.7-41c70.6-51.2,105-120.8,99.1-208.4C472,159,446,108.1,400.8,68.1
		C340.6,14.8,270-3.9,191.3,12.8C127.4,26.3,77.8,61.9,42.4,116.9c-11.1,17.5-19.5,36.2-25.5,56.1C10.7,193.7,7.4,214.9,7.2,231.9z"
		/>
	<path class="st0" d="M454.4,265.8c-0.6,2.9-2.9,1.3-4.2,1.3c-52.2,0.1-104.3,0.1-156.5,0.1c-84.7,0-169.3,0.1-254,0.1
		c-1.5,0-3.2,0.3-4.5-0.2c-2.3-1,0.1-1.6,0.5-2.4c0.7,0,1.3-0.2,1.3-1.1l0,0c1.7,0.3,2.8-0.9,4-1.7c28.1-19.7,60-28,93.6-31.4
		c13.9-1.4,27.9-2.1,41.9-2.2c12.4,0.8,24.8,2.7,37.4,1.9c18.9-1.2,37.4-4.4,54.1-14c17.5-10,29.9-23.9,31.1-45.2
		c0.9-16.9-8-28.1-24.5-31.9c1.6-6.3,5-11.4,9.9-15.7c1.9,7.2,6.4,9.5,13.3,7.1c2.2-0.8,4.2-2,5.9-3.5c10.9-9.5,23.4-9.4,36.5-6.5
		c15.2,16.2,20.9,35.6,17.5,57.1c-5.6,34.6-27,55.9-59.4,66.8c-22.9,7.8-46,5.8-69,0.5c-33.4-7.7-67.1-10.7-101.1-5.5
		c-11.8,1.8-23.3,4.9-34.3,9.6c1.2,0.2,2.4,0.3,3.5,0c17.6-5.3,35.7-6.2,53.9-5.7c25.2,0.6,49.9,5.6,74.6,10.7
		c24,4.9,48.2,6.7,72.4,1.4c35.5-7.8,58.5-28.9,66.8-64.9c0.5-2.1,0.2-4.5,1.8-6.5c18.4,38.2,34.4,54.9,71.7,74.5
		c4.5,2.4,8.9,5.1,14,6l0,0C452.5,265.8,453.5,265.9,454.4,265.8z"/>
	<path class="st1" d="M452.3,264.6c-5.2-0.9-9.5-3.7-14-6C401,239,385,222.3,366.6,184.1c-1.6,2-1.3,4.4-1.8,6.5
		c-8.3,36-31.3,57.1-66.8,64.9c-24.2,5.3-48.4,3.5-72.4-1.4c-24.6-5-49.3-10-74.6-10.7c-18.2-0.5-36.3,0.4-53.9,5.7
		c-1.1,0.3-2.3,0.2-3.5,0c11-4.7,22.5-7.8,34.3-9.6c34.1-5.3,67.7-2.3,101.1,5.5c23,5.3,46.2,7.3,69-0.5
		c32.4-11,53.8-32.3,59.4-66.8c3.5-21.5-2.3-40.9-17.5-57.1c13.7,1.8,25,8.6,35.7,16.7c8.4,6.5,15.3,14.5,22.1,23
		c0.1-0.8,0.3-1.1,0.2-1.4c-0.2-0.8-0.5-1.6-0.9-2.3c-7.9-17.4-18.4-32.8-33.9-44.4c-35.3-26.5-73.8-33-115.4-17.6
		c-16.6,6.1-30.6,16-38.4,32.8c-2.9,6.2-4,12.7-3.4,19.4c0.6,6.1,5.1,9.4,9.3,6.2c5.7-4.4,11-9.7,13.6-16.7
		c2.3-6.1,5.5-11.5,10.9-15.4c-0.1,1.2-0.6,2.2-1,3.2c-2.2,5.3-4.1,10.6-3.7,16.4c0.7,10.9,9,15.8,19,11.3c3.7-1.7,6.5-4.5,9-7.7
		c4.6-6,7.2-13.1,10.9-19.6c4.4-7.9,10.7-13.5,20-15.4c-4.9,3.8-8.3,8.6-9.8,14.6c-4.9,4.2-8.3,9.4-9.9,15.7
		c-3.9,9-9.5,16.5-18.9,20.3c-9.9,3.9-17.9,1.7-24.1-6.9c-1.8-2.4-2.6-3-4.4,0c-1.7,2.9-4.4,5-7.2,6.8c-7.2,4.7-15.8,2.2-19.2-5.6
		c-3.5-8.3-2.7-16.6,0.3-24.8c7.7-21.2,24.1-33.9,44.2-41.4c36.8-13.8,73-11.4,107.3,8.1c20.5,11.7,36.3,28.1,47.5,49.3
		c8.4,15.9,12.4,32.9,15.4,50.3c4.5,25.8,15.1,48.4,34.8,66.3C451,262.4,452.3,263,452.3,264.6z"/>
	<path class="st0" d="M112,150.7c-1.1,1.9-3.3,1.1-4.9,3.2c8.1,1.8,15.8,3.5,23.5,5.2c6.8,1.5,13.5,2.9,20.3,4.4
		c1.1,0.2,2.6,0.3,2.7,1.6c0.1,1.4-1.3,1.8-2.4,2.3c-10,4.9-19.7,10.5-30.1,14.6c-1.7,0.7-4.3,0.9-4.1,3.6c0.2,2.4,2.5,2.4,4.1,3
		c16.7,5.8,33.4,11.4,50,17.2c1.5,0.5,3.8,0.4,4.1,2.3s-2,2.4-3.2,3.4c-3.7,2.8-8.4,4-11.7,7.4c-1,1-2.2,0.7-3.3,0.5
		c-24.3-5.3-48.2-3.7-71.8,3.9c-18.9,6.1-34.6,17.4-48.8,30.9c-1.4,1.3-2.8,2.7-4.7,4.5c-2.3-10.4-4.9-20,2.7-28.9
		c2.2-2.5,3-6,2.5-9.4c-0.4-3.3,0.3-6.3,1.7-9.2c3.8-7.5,9.6-13.5,14.7-20.1c1.1-1.5,2.9-2.2,4.8-2.6c6.8-1.3,10.8-5.2,13.2-12
		c2.9-8.2,8.9-13.5,18.5-13.9c5.2-0.2,8.3-4.8,11.4-8.1C104.4,151.1,107.7,150.9,112,150.7z"/>
	<path class="st0" d="M130.8,127.5c2.4,2.1,3.6,4,3,6.9c-0.2,0.9,0,2.7,0.4,2.8c5.8,1.9,2.1,6.6,3,9.8c0.4,1.5-0.5,3.9,2.3,3.3
		c8-1.9,12.3,4,17.5,8c1.2,0.9,2,2.8,3.6,2.3c5.6-1.7,6.4,2.5,8.3,6.1c5.8,10.7,15.2,16.1,27,17.8c1.3,0.2,3.1-0.2,3.9,0.5
		c7.7,7.4,20.3,9.6,22.8,22.4c1,4.9,5.1,7,9.7,8.4c2.7,0.8,5.6,1.1,8.2,3.6c-6.5,2.6-13,3-19.5,3.9c-11.3,1.5-22.6,0.3-33.9,0.1
		c-6-0.1-11.9-1.9-17.9-2.9c-0.6-0.1-1.3-0.5-1.6-0.9c-0.7-1.1,0.6-1.3,1.1-1.7c2.7-2,5.4-3.8,8.1-5.8c1.4-1,3.6-1.8,3.2-4
		c-0.3-1.9-2.4-2-3.9-2.5c-16-5.6-32-11.3-48-16.9c-0.6-0.2-1.3-0.4-1.9-0.7c-1.5-0.7-3.9-0.7-4-2.5c-0.1-2.2,2.4-2.4,4-3.1
		c8.5-4.2,17-8.3,25.5-12.5c1.6-0.8,3.2-1.8,4.7-2.8c1-0.7,1.9-1.6,1.7-2.9c-0.3-1.5-1.6-1.4-2.8-1.6c-8.8-1.6-17.6-3.2-26.3-5
		c-4.7-1-9.2-2.4-13.9-3.6c-2.3-0.6-4-2.1-2.4-4.2c2.6-3.5-3.8-10.8,4.9-11.5c1.3-0.1,2.7-0.1,4,0c4,0.1,7.9,0.3,6.7-5.8
		C127.8,130.4,129.8,129.3,130.8,127.5z"/>
	<path class="st0" d="M107.2,360c-14.5-0.4-25.9-5.6-32.5-18.1c-6.1-11.5-5.9-23.5,1.3-34.7c13.7-21.3,49-20.9,61.8,1
		c6.4,10.9,7.2,22.6,0.7,34.1C131.5,354.7,120.3,359.6,107.2,360z M125.2,326.1c0.1-11.4-7.4-19.5-18-19.6c-11-0.1-19,7.6-19,18.6
		C88.1,337,95.6,344.9,107,345C117.5,345.1,125.1,337.1,125.2,326.1z"/>
	<path class="st0" d="M407.6,314.6c0,6.7,0.5,13.4-0.1,20c-1.1,13.1-9.1,21.7-21.9,24.5c-6.6,1.4-13.3,1.3-19.8-0.6
		c-10.9-3.1-17.2-10.6-18.6-21.7c-1.8-13.8-0.5-27.6-0.8-41.4c0-1.8,0.5-2.9,2.5-2.7c0.3,0,0.7,0,1,0c4.3,0.1,9.8-1.4,12.6,0.7
		c3,2.3,0.9,8.1,1,12.3c0.2,8.3,0,16.7,0.2,25c0.3,8.7,4.2,14.1,12.4,14.7c8.5,0.6,13.8-4.1,14.2-14c0.4-11.5,0.4-23,0.4-34.5
		c0-3.1,0.5-4.7,4-4.3c4.2,0.5,9.9-1.8,12.4,1c2.1,2.4,0.7,7.9,0.8,12.1c0.1,3,0,6,0,9C407.7,314.6,407.6,314.6,407.6,314.6z"/>
	<path class="st0" d="M245.8,292.7c6.2-2.1,9,2.1,11.6,8.4c7.5,17.9,15.5,35.6,23.5,53.4c1.6,3.5,1,4.8-2.9,4.3
		c-0.5-0.1-1-0.1-1.5,0c-9,1.7-15-1.1-16.5-10.8c-0.3-2.1-1.7-2.9-3.9-2.8c-7.5,0.1-15,0.1-22.5,0c-2.6,0-3.7,0.9-4.6,3.3
		c-3.8,10.2-3.9,10.2-14.9,10.3c-1.2,0-2.3-0.1-3.5,0c-2.7,0.2-3.2-0.8-2.1-3.2c8.9-20.2,17.8-40.5,26.6-60.7
		c0.7-1.6,1.6-2.3,3.4-2.2C240.4,292.7,242.4,292.7,245.8,292.7z M244.8,310.2c-1.3,3.1-2.3,5.2-3.1,7.4c-1.6,4.8-4.4,9.2-5,14.3
		c5.1,0,10.2,0,15.3,0c0.3,0,0.5-0.3,1-0.6C250.5,324.6,247.8,317.8,244.8,310.2z"/>
	<path class="st0" d="M309.3,292.7c8.5,0,17,0.1,25.5-0.1c2.8-0.1,3.7,0.8,3.7,3.6c0.3,10.4,0.4,10.4-9.8,10.4
		c-11.2,0-11.3,0-11.3,11.4c0,12-0.1,24,0.1,36c0,3.3-0.6,4.6-4.3,4.6c-13,0-12.9,0.2-13-12.8c0-11.7-0.1-23.3,0-35
		c0-3.2-0.8-4.4-4.1-4.2c-4.3,0.3-8.7-0.1-13,0.1c-2.6,0.1-3.4-0.9-3.6-3.4c-0.7-10.6-0.8-10.6,9.7-10.6c3.3,0,6.7,0,10,0
		C302.6,292.7,305.9,292.7,309.3,292.7L309.3,292.7z"/>
	<path class="st0" d="M360.9,417.3c-41.8,36.3-148.9,65.4-241.5-1c2.1-1.8,3.5,0.1,5.1,0.9c8.9,4.4,17.3,10,26.6,13.1
		c16.8,5.6,33.7,11.1,51.3,14c24.9,4.2,49.9,4.7,74.6,1c26.4-4,51.7-12.3,75.6-24.5C355.5,419.5,358.4,418.4,360.9,417.3z"/>
	<path class="st0" d="M154.9,325.6c0-9.7,0.1-19.3-0.1-29c0-3,0.7-4,3.8-4c13.3-0.2,13.3-0.3,13.4,13c0.1,11.8,0.2,23.6,0.1,35.4
		c0,2.8,0.7,3.7,3.6,3.7c8.5-0.2,17,0.1,25.5-0.1c3.1-0.1,3.9,0.9,4,4c0.2,10.3,0.3,10.3-10,10.3c-12.1,0-24.3-0.1-36.4,0.1
		c-3,0-4.1-0.6-4-3.8C155,345.2,154.9,335.4,154.9,325.6z"/>
	<path class="st0" d="M298.8,396.5c5.3,3,8.4,6.6,7.3,12.4c-1.2,6.2-5.8,9.1-11.4,9.5c-8.6,0.7-17.3,0.4-26,0.6
		c-2.2,0-2.2-1.2-2.2-2.9c0.1-12,0.2-24,0.2-36c0-2.1-0.2-4,2.9-3.8c8.2,0.6,16.5-0.8,24.7,0.9c4.7,0.9,8.2,2.9,9.5,7.5
		C305.2,389.5,303.3,393.5,298.8,396.5z M285.4,401.6L285.4,401.6c-1.2,0-2.4,0.1-3.5-0.1c-3.6-0.5-4.5,1.1-4.5,4.5
		c0,3.2,0.5,5.1,4.3,4.6c2-0.3,4,0,6,0c3.3,0,7.1-0.4,7.1-4.5c-0.1-4.2-3.8-4.8-7.4-4.6C286.8,401.6,286.1,401.6,285.4,401.6z
		 M283.9,384.7c-1.8,1.1-5.7-2.3-6.3,3.2c-0.6,5.5,2.2,5.9,6.3,5.5c3.5-0.4,8.5,0.6,8.6-4.3C292.7,384.1,287.9,384.8,283.9,384.7z"
		/>
	<path class="st1" d="M176.5,228.5c-14,0.1-27.9,0.8-41.9,2.2c-33.6,3.4-65.5,11.7-93.6,31.4c-1.2,0.8-2.3,2-4,1.7
		c-0.2-3.2,3-3.7,4.6-5.4c23-22.9,50.8-35.2,83.3-35.4C142.3,222.9,159.6,224.8,176.5,228.5z"/>
	<path class="st0" d="M213.3,418.9c5.1-14.2,11.7-26.8,17.1-40c1.5-3.8,4.9-2.6,7.8-2.7c2.2,0,4.5-0.8,5.9,2.3
		c5.6,13.1,11.4,26.1,17.1,39.1c0.1,0.3-0.1,0.6-0.1,1.2c-1.9,0-3.9-0.2-5.9,0c-3.8,0.5-6-0.9-6.9-4.6c-0.8-3.3-2.7-4.6-6.1-4.2
		c-2.3,0.3-4.7,0.3-7,0.1c-5.1-0.5-9.2,0.3-10.1,6.4c-0.3,1.7-1.5,2.3-3.3,2.2C219.1,418.8,216.4,418.9,213.3,418.9z M237.5,388.5
		c-0.7,0.5-0.9,0.5-0.9,0.7c-0.5,1.2-1,2.4-1.5,3.7c-3.9,9.9-3.9,9.9,7.1,8.4C241.3,396.9,239.4,392.9,237.5,388.5z"/>
	<path class="st0" d="M178.8,397.4c0-6,0.1-12,0-18c-0.1-2.4,0.8-3,3.1-3.2c8.2-0.4,8.2-0.5,8.2,7.7c0,7.3,0.2,14.6-0.1,21.9
		c-0.1,3.2,1,4,4,3.8c4.6-0.3,9.3,0.2,14-0.2c5.3-0.5,3.6,3.4,4.1,5.9c0.6,3.1-1.2,3.5-3.7,3.5c-8.6-0.1-17.3-0.1-25.9,0
		c-2.8,0.1-3.7-0.7-3.6-3.6C179,409.4,178.9,403.4,178.8,397.4L178.8,397.4z"/>
	<path class="st1" d="M196.4,160.4c3.2,0.2,5,1.7,5,4.6c0,3.1-1.9,5.2-4.8,5.3c-2.9,0.1-5.3-1.7-5-4.9
		C191.8,162.6,193.5,160.6,196.4,160.4z"/>
	<path class="st1" d="M191.4,175.6c-0.2,1.7-1.1,2.9-2.8,2.9c-1.8-0.1-3.2-1.3-3.1-3.1c0.1-1.8,1.4-3,3.4-2.8
		C190.7,172.6,191.3,173.9,191.4,175.6z"/>
	<path class="st1" d="M454.4,265.8c-1,0.1-1.9,0-2.1-1.2C453.4,264.3,454,265,454.4,265.8z"/>
	<path class="st1" d="M37.1,263.7c-0.1,0.8-0.6,1-1.3,1.1C36,264.1,36.4,263.6,37.1,263.7z"/>
	<path class="st2" d="M284.4,123.6c1.6-6,4.9-10.7,9.8-14.6c-9.3,1.9-15.6,7.5-20,15.4c-3.6,6.5-6.2,13.6-10.9,19.6
		c-2.5,3.2-5.2,6-9,7.7c-10,4.6-18.3-0.3-19-11.3c-0.4-5.8,1.5-11.1,3.7-16.4c0.4-1,0.9-2,1-3.2c-5.4,4-8.6,9.3-10.9,15.4
		c-2.7,7-7.9,12.2-13.6,16.7c-4.1,3.2-8.7-0.1-9.3-6.2c-0.6-6.8,0.5-13.2,3.4-19.4c7.8-16.8,21.9-26.6,38.4-32.8
		c41.5-15.4,80.1-8.9,115.4,17.6c15.5,11.6,26,27,33.9,44.4c0.3,0.8,0.6,1.5,0.9,2.3c0.1,0.3-0.1,0.6-0.2,1.4
		c-6.8-8.5-13.7-16.5-22.1-23c-10.6-8.2-22-14.9-35.7-16.7c-13.1-2.9-25.6-3-36.5,6.5c-1.7,1.5-3.7,2.8-5.9,3.5
		C290.7,133.2,286.2,130.8,284.4,123.6z"/>
	<path class="st2" d="M125.2,326.1c-0.1,11-7.8,18.9-18.2,18.9c-11.4-0.1-18.9-8-18.8-19.9c0.1-11,8-18.7,19-18.6
		C117.9,306.7,125.3,314.7,125.2,326.1z"/>
	<path class="st2" d="M244.8,310.2c3,7.6,5.6,14.4,8.3,21.1c-0.5,0.3-0.7,0.6-1,0.6c-5.1,0-10.2,0-15.3,0c0.6-5.2,3.4-9.5,5-14.3
		C242.5,315.4,243.6,313.3,244.8,310.2z"/>
	<path class="st2" d="M285.4,401.6c0.7,0,1.3,0,2,0c3.6-0.2,7.3,0.4,7.4,4.6c0.1,4.1-3.8,4.4-7.1,4.5c-2,0-4-0.3-6,0
		c-3.8,0.5-4.3-1.4-4.3-4.6c0-3.4,0.9-5,4.5-4.5C283.1,401.7,284.3,401.6,285.4,401.6L285.4,401.6z"/>
	<path class="st2" d="M283.9,384.7c4,0.1,8.9-0.6,8.7,4.4c-0.2,4.9-5.2,3.9-8.6,4.3c-4.1,0.5-6.9,0-6.3-5.5
		C278.2,382.5,282.1,385.9,283.9,384.7z"/>
	<path class="st2" d="M237.5,388.5c1.9,4.4,3.7,8.4,4.7,12.8c-11,1.5-11,1.5-7.1-8.4c0.5-1.2,1-2.5,1.5-3.7
		C236.7,389,236.9,389,237.5,388.5z"/>
</g>
</svg>
