<?xml version="1.0" encoding="UTF-8" standalone="no"?>
<!-- Created with Inkscape (http://www.inkscape.org/) -->

<svg
   width="403.42532"
   height="403.42532"
   viewBox="0 0 106.73961 106.73962"
   version="1.1"
   id="svg5"
   xml:space="preserve"
   inkscape:version="1.2.2 (b0a8486541, 2022-12-01)"
   sodipodi:docname="logo FiveDevs.svg"
   xmlns:inkscape="http://www.inkscape.org/namespaces/inkscape"
   xmlns:sodipodi="http://sodipodi.sourceforge.net/DTD/sodipodi-0.dtd"
   xmlns="http://www.w3.org/2000/svg"
   xmlns:svg="http://www.w3.org/2000/svg"><sodipodi:namedview
     id="namedview7"
     pagecolor="#505050"
     bordercolor="#ffffff"
     borderopacity="1"
     inkscape:showpageshadow="false"
     inkscape:pageopacity="0"
     inkscape:pagecheckerboard="1"
     inkscape:deskcolor="#505050"
     inkscape:document-units="px"
     showgrid="false"
     inkscape:zoom="1.0557596"
     inkscape:cx="38.834598"
     inkscape:cy="172.38773"
     inkscape:window-width="1920"
     inkscape:window-height="1008"
     inkscape:window-x="0"
     inkscape:window-y="0"
     inkscape:window-maximized="1"
     inkscape:current-layer="layer1" /><defs
     id="defs2"><rect
       x="735.64014"
       y="397.59219"
       width="549.11786"
       height="213.31215"
       id="rect2914" /><rect
       x="-360.77719"
       y="137.89848"
       width="203.55592"
       height="154.91827"
       id="rect382" /><clipPath
       clipPathUnits="userSpaceOnUse"
       id="clipPath277"><rect
         style="fill:#000000;stroke-width:0.264583"
         id="rect279"
         width="142.88881"
         height="91.330376"
         x="3.6981709"
         y="30.724964" /></clipPath></defs><g
     inkscape:label="Capa 1"
     inkscape:groupmode="layer"
     id="layer1"
     transform="translate(-181.05053,-26.641005)"><circle
       style="fill:#242424;fill-opacity:0;stroke:#000000;stroke-width:2.66096;stroke-dasharray:none;stroke-opacity:1"
       id="path3762"
       cx="234.42033"
       cy="80.010811"
       r="52.039326" /><path
       id="rect225"
       style="fill:#000000;fill-opacity:1;stroke-width:0.264583"
       d="m 251.6381,51.533752 c 0,-0.0756 -0.16214,0.004 -0.26096,0.0083 -0.43656,0.01867 -5.10149,0.04844 -10.3663,0.06614 l -9.57202,0.03204 -0.3235,1.521354 -4.17181,17.91209 3.79305,0.981335 4.74749,-14.391375 0.17312,-0.98857 7.85378,-0.06976 7.85378,-0.07028 0.32402,-1.455208 c 0.17803,-0.800363 0.35947,-1.521355 0.40307,-2.248958 0.0691,-1.152845 -0.45372,-0.767947 -0.45372,-1.297079 z m -14.56119,11.413483 -1.08862,3.681127 c 0,0 5.98022,2.429871 7.92935,3.485616 3.18724,1.822981 3.66311,2.474594 3.72691,4.544942 0.0845,2.742465 -0.69826,4.025965 -4.73408,5.989816 -4.50534,1.98289 -8.28745,1.687533 -14.61606,-1.513308 0,0 -1.23866,3.713554 -1.08014,3.847015 1.12265,0.945231 5.05315,2.672501 6.92206,3.042192 1.85779,0.36749 5.95476,0.209341 8.1022,-0.227097 3.95677,-0.804161 7.23887,-2.926259 8.59121,-5.554183 0.85391,-1.659354 1.36273,-4.491496 1.25193,-6.226773 -0.16173,-2.532815 -2.04642,-5.596865 -4.46813,-7.121529 -3.03251,-1.82168 -10.53663,-3.947818 -10.53663,-3.947818 z m -12.03533,-0.837774 c 0,0 -5.97697,3.236011 -9.34749,5.147094 -6.62388,3.755752 -6.29258,4.21725 -6.29418,5.229722 -0.001,0.767468 0.54452,1.58533 2.24326,2.592023 2.52636,1.497146 10.81046,6.159069 10.81046,6.159069 l 1.01742,-3.83697 -4.57096,-2.633708 c 0,0 -4.0722,-2.464142 -4.02249,-2.613277 0.0497,-0.149135 3.96513,-2.408639 3.96513,-2.408639 l 5.14364,-3.049465 z"
       sodipodi:nodetypes="ssccccccccccssscccsccssssscccssscccsccc" /><text
       xml:space="preserve"
       transform="matrix(0.19591225,0,0,0.15238938,50.24859,29.116236)"
       id="text2912"
       style="font-weight:bold;font-size:96px;font-family:sans-serif;-inkscape-font-specification:'sans-serif Bold';letter-spacing:-5.52px;white-space:pre;shape-inside:url(#rect2914);display:inline;fill:#000000;fill-opacity:1"><tspan
         x="735.64062"
         y="484.93981"
         id="tspan1587">FiveDev's</tspan></text></g></svg>
